<?xml version="1.0" encoding="UTF-8" standalone="no"?>
<!-- Created with Inkscape (http://www.inkscape.org/) -->

<svg
   width="97"
   height="97"
   viewBox="0 0 25.664583 25.664583"
   version="1.1"
   id="svg1"
   xml:space="preserve"
   inkscape:version="1.3.2 (091e20e, 2023-11-25, custom)"
   sodipodi:docname="icon.svg"
   inkscape:export-filename="icon.png"
   inkscape:export-xdpi="96"
   inkscape:export-ydpi="96"
   xmlns:inkscape="http://www.inkscape.org/namespaces/inkscape"
   xmlns:sodipodi="http://sodipodi.sourceforge.net/DTD/sodipodi-0.dtd"
   xmlns="http://www.w3.org/2000/svg"
   xmlns:svg="http://www.w3.org/2000/svg"><sodipodi:namedview
     id="namedview1"
     pagecolor="#ffffff"
     bordercolor="#666666"
     borderopacity="1.0"
     inkscape:showpageshadow="2"
     inkscape:pageopacity="0.0"
     inkscape:pagecheckerboard="0"
     inkscape:deskcolor="#d1d1d1"
     inkscape:document-units="mm"
     inkscape:zoom="4.0970529"
     inkscape:cx="53.697134"
     inkscape:cy="46.740915"
     inkscape:window-width="1920"
     inkscape:window-height="1009"
     inkscape:window-x="-8"
     inkscape:window-y="-8"
     inkscape:window-maximized="1"
     inkscape:current-layer="layer1"
     showgrid="false" /><defs
     id="defs1" /><g
     inkscape:label="Level 1"
     inkscape:groupmode="layer"
     id="layer1"><text
       xml:space="preserve"
       style="font-style:normal;font-weight:normal;font-size:10.5833px;line-height:1.25;font-family:sans-serif;fill:#000000;fill-opacity:1;stroke:none;stroke-width:0.264583"
       x="0.23161401"
       y="16.663446"
       id="text1"><tspan
         sodipodi:role="line"
         id="tspan1"
         style="stroke-width:0.264583"
         x="0.23161401"
         y="16.663446">&lt;</tspan></text><text
       xml:space="preserve"
       style="font-style:normal;font-weight:normal;font-size:10.5833px;line-height:1.25;font-family:sans-serif;fill:#000000;fill-opacity:1;stroke:none;stroke-width:0.264583"
       x="19.46702"
       y="16.663446"
       id="text2"><tspan
         sodipodi:role="line"
         id="tspan2"
         style="stroke-width:0.264583"
         x="19.46702"
         y="16.663446">&gt;</tspan></text><path
       d="m 17.226152,6.5606553 c 1.058362,0 1.916333,0.8579725 1.916333,1.9163337 v 8.710606 c 0,1.058362 -0.857971,1.916333 -1.916333,1.916333 H 8.5155459 c -1.0583613,0 -1.9163331,-0.857971 -1.9163331,-1.916333 V 8.476989 c 0,-1.0583612 0.8579718,-1.9163337 1.9163331,-1.9163337 z m 0,1.045274 H 8.5155459 c -0.4810733,0 -0.8710604,0.3899866 -0.8710604,0.8710597 v 8.710606 c 0,0.481073 0.3899871,0.871061 0.8710604,0.871061 h 8.7106061 c 0.481074,0 0.871061,-0.389988 0.871061,-0.871061 V 8.476989 c 0,-0.4810731 -0.389987,-0.8710597 -0.871061,-0.8710597 z m -5.749,6.9262137 4.50838,-4.508381 c 0.204102,-0.2041014 0.535018,-0.2041014 0.739119,0 0.185548,0.185549 0.202416,0.475899 0.0506,0.680502 l -0.0506,0.05862 -4.877939,4.877939 c -0.185547,0.185549 -0.475899,0.202417 -0.680502,0.05061 l -0.05862,-0.05061 -2.0905451,-2.090545 c -0.204102,-0.204102 -0.204102,-0.535018 0,-0.739118 0.1855476,-0.185549 0.4758991,-0.202417 0.6805019,-0.0506 l 0.058618,0.0506 1.7209852,1.720985 4.50838,-4.50838 z"
       style="fill:#000000;fill-rule:nonzero;stroke:none;stroke-width:0.696846;fill-opacity:1"
       id="path1" /></g></svg>
