<?xml version="1.0" encoding="UTF-8" standalone="no"?>
<!-- Created with Inkscape (http://www.inkscape.org/) -->

<svg
   width="97"
   height="97"
   viewBox="0 0 97 97"
   version="1.1"
   id="svg1"
   xml:space="preserve"
   sodipodi:docname="icon.svg"
   inkscape:version="1.3.2 (091e20e, 2023-11-25, custom)"
   inkscape:export-filename="icon.png"
   inkscape:export-xdpi="96"
   inkscape:export-ydpi="96"
   xmlns:inkscape="http://www.inkscape.org/namespaces/inkscape"
   xmlns:sodipodi="http://sodipodi.sourceforge.net/DTD/sodipodi-0.dtd"
   xmlns="http://www.w3.org/2000/svg"
   xmlns:svg="http://www.w3.org/2000/svg"><sodipodi:namedview
     id="namedview1"
     pagecolor="#ffffff"
     bordercolor="#666666"
     borderopacity="1.0"
     inkscape:showpageshadow="2"
     inkscape:pageopacity="0.0"
     inkscape:pagecheckerboard="0"
     inkscape:deskcolor="#d1d1d1"
     inkscape:document-units="mm"
     inkscape:zoom="2.9632877"
     inkscape:cx="20.247781"
     inkscape:cy="21.428901"
     inkscape:window-width="1920"
     inkscape:window-height="1009"
     inkscape:window-x="-8"
     inkscape:window-y="-8"
     inkscape:window-maximized="1"
     inkscape:current-layer="layer1" /><defs
     id="defs1" /><g
     inkscape:label="Level 1"
     inkscape:groupmode="layer"
     id="layer1"><g
       style="color:#000000;fill:none;stroke-width:1.5"
       id="g1"
       transform="matrix(2.3591807,0,0,2.3591807,-0.0112268,1.362029)"><path
         d="M 16.4724,20 H 4.1 C 3.76863,20 3.5,19.7314 3.5,19.4 V 9.6 C 3.5,9.26863 3.76863,9 4.1,9 H 6.86762 C 7.57015,9 8.22116,8.6314 8.5826,8.02899 L 11.293,3.51161 c 0.5849,-0.97473 1.9624,-1.06739 2.6725,-0.17975 0.3347,0.41839 0.4426,0.97449 0.2886,1.4877 L 13.2317,8.22759 C 13.1162,8.61256 13.4045,9 13.8064,9 h 4.5751 c 1.3187,0 2.2765,1.254 1.9295,2.5262 l -1.9091,7 C 18.1646,19.3964 17.3743,20 16.4724,20 Z"
         stroke="#000000"
         stroke-width="1.5"
         stroke-linecap="round"
         id="path1" /><path
         d="M 7,20 V 9"
         stroke="#000000"
         stroke-width="1.5"
         stroke-linecap="round"
         stroke-linejoin="round"
         id="path2" /></g><g
       style="color:#000000;fill:none;stroke-width:1.5"
       id="g2"
       transform="matrix(-2.3591807,0,0,-2.3591807,97.85074,95.953)"><path
         d="M 16.4724,20 H 4.1 C 3.76863,20 3.5,19.7314 3.5,19.4 V 9.6 C 3.5,9.26863 3.76863,9 4.1,9 H 6.86762 C 7.57015,9 8.22116,8.6314 8.5826,8.02899 L 11.293,3.51161 c 0.5849,-0.97473 1.9624,-1.06739 2.6725,-0.17975 0.3347,0.41839 0.4426,0.97449 0.2886,1.4877 L 13.2317,8.22759 C 13.1162,8.61256 13.4045,9 13.8064,9 h 4.5751 c 1.3187,0 2.2765,1.254 1.9295,2.5262 l -1.9091,7 C 18.1646,19.3964 17.3743,20 16.4724,20 Z"
         stroke="#000000"
         stroke-width="1.5"
         stroke-linecap="round"
         id="path1-3" /><path
         d="M 7,20 V 9"
         stroke="#000000"
         stroke-width="1.5"
         stroke-linecap="round"
         stroke-linejoin="round"
         id="path2-3" /></g><path
       style="fill:#00ff00;stroke-width:1.23738"
       d="m 18.380639,35.408715 0.0067,-11.36751 0.847405,-0.404653 c 1.537431,-0.734155 1.86384,-1.168227 5.750571,-7.647326 3.808223,-6.3482277 3.790346,-6.3250194 4.871909,-6.3250194 0.761406,0 1.352263,0.2858538 1.703196,0.8239974 0.547492,0.839562 0.537484,0.903331 -0.890183,5.671772 -1.392561,4.651187 -1.488559,5.165369 -1.145766,6.136949 0.263976,0.748188 0.863378,1.410452 1.607193,1.775748 l 0.664754,0.326466 6.204182,0.05966 c 6.112341,0.05877 6.211466,0.06355 6.696246,0.322874 0.934149,0.499701 1.508928,1.446233 1.506544,2.480939 -9.19e-4,0.398982 -0.7383,3.303316 -2.226457,8.769372 -1.223796,4.49505 -2.311622,8.409246 -2.41739,8.698215 -0.253111,0.691521 -0.923507,1.421141 -1.590308,1.730802 -0.530012,0.246136 -0.671993,0.249757 -11.066113,0.282282 l -10.529213,0.03295 z"
       id="path3" /><path
       style="fill:#ff0000;stroke-width:1.23738"
       d="m 67.106631,87.53251 c -0.461951,-0.2096 -0.947059,-0.783307 -1.129326,-1.335583 -0.174561,-0.528922 -0.205783,-0.3993 1.322814,-5.491821 1.346156,-4.484722 1.40986,-4.920664 0.875696,-5.992591 -0.169844,-0.340834 -0.525089,-0.804827 -0.789433,-1.031094 -0.912644,-0.78119 -0.923021,-0.782282 -7.432507,-0.782282 -6.527451,0 -6.580374,-0.0057 -7.387891,-0.789909 -0.607784,-0.590272 -0.937706,-1.296716 -0.939862,-2.012472 -0.0022,-0.745189 4.576124,-17.568384 4.942501,-18.161194 0.135368,-0.219031 0.419214,-0.53026 0.630769,-0.69162 0.886941,-0.676503 0.516936,-0.655998 11.837134,-0.655998 h 10.424729 v 11.318185 11.318185 l -0.805351,0.394681 c -1.559667,0.764352 -1.956216,1.291662 -5.809168,7.724738 -2.78406,4.648401 -3.529278,5.809163 -3.861254,6.014334 -0.507277,0.313515 -1.391419,0.395602 -1.878851,0.174441 z"
       id="path4" /></g></svg>
